<?xml version="1.0" encoding="UTF-8"?>
<!DOCTYPE svg PUBLIC "-//W3C//DTD SVG 1.1//EN" "http://www.w3.org/Graphics/SVG/1.1/DTD/svg11.dtd">
<svg version="1.2" width="264.85mm" height="264.85mm" viewBox="0 0 26485 26485" preserveAspectRatio="xMidYMid" fill-rule="evenodd" stroke-width="28.222" stroke-linejoin="round" xmlns="http://www.w3.org/2000/svg" xmlns:ooo="http://xml.openoffice.org/svg/export" xmlns:xlink="http://www.w3.org/1999/xlink" xmlns:presentation="http://sun.com/xmlns/staroffice/presentation" xmlns:smil="http://www.w3.org/2001/SMIL20/" xmlns:anim="urn:oasis:names:tc:opendocument:xmlns:animation:1.0" xml:space="preserve">
 <defs class="ClipPathGroup">
  <clipPath id="presentation_clip_path" clipPathUnits="userSpaceOnUse">
   <rect x="0" y="0" width="26485" height="26485"/>
  </clipPath>
  <clipPath id="presentation_clip_path_shrink" clipPathUnits="userSpaceOnUse">
   <rect x="26" y="26" width="26433" height="26433"/>
  </clipPath>
 </defs>
 <defs class="TextShapeIndex">
  <g ooo:slide="id1" ooo:id-list="id3 id4"/>
 </defs>
 <defs class="EmbeddedBulletChars">
  <g id="bullet-char-template-57356" transform="scale(0.00048828125,-0.00048828125)">
   <path d="M 580,1141 L 1163,571 580,0 -4,571 580,1141 Z"/>
  </g>
  <g id="bullet-char-template-57354" transform="scale(0.00048828125,-0.00048828125)">
   <path d="M 8,1128 L 1137,1128 1137,0 8,0 8,1128 Z"/>
  </g>
  <g id="bullet-char-template-10146" transform="scale(0.00048828125,-0.00048828125)">
   <path d="M 174,0 L 602,739 174,1481 1456,739 174,0 Z M 1358,739 L 309,1346 659,739 1358,739 Z"/>
  </g>
  <g id="bullet-char-template-10132" transform="scale(0.00048828125,-0.00048828125)">
   <path d="M 2015,739 L 1276,0 717,0 1260,543 174,543 174,936 1260,936 717,1481 1274,1481 2015,739 Z"/>
  </g>
  <g id="bullet-char-template-10007" transform="scale(0.00048828125,-0.00048828125)">
   <path d="M 0,-2 C -7,14 -16,27 -25,37 L 356,567 C 262,823 215,952 215,954 215,979 228,992 255,992 264,992 276,990 289,987 310,991 331,999 354,1012 L 381,999 492,748 772,1049 836,1024 860,1049 C 881,1039 901,1025 922,1006 886,937 835,863 770,784 769,783 710,716 594,584 L 774,223 C 774,196 753,168 711,139 L 727,119 C 717,90 699,76 672,76 641,76 570,178 457,381 L 164,-76 C 142,-110 111,-127 72,-127 30,-127 9,-110 8,-76 1,-67 -2,-52 -2,-32 -2,-23 -1,-13 0,-2 Z"/>
  </g>
  <g id="bullet-char-template-10004" transform="scale(0.00048828125,-0.00048828125)">
   <path d="M 285,-33 C 182,-33 111,30 74,156 52,228 41,333 41,471 41,549 55,616 82,672 116,743 169,778 240,778 293,778 328,747 346,684 L 369,508 C 377,444 397,411 428,410 L 1163,1116 C 1174,1127 1196,1133 1229,1133 1271,1133 1292,1118 1292,1087 L 1292,965 C 1292,929 1282,901 1262,881 L 442,47 C 390,-6 338,-33 285,-33 Z"/>
  </g>
  <g id="bullet-char-template-9679" transform="scale(0.00048828125,-0.00048828125)">
   <path d="M 813,0 C 632,0 489,54 383,161 276,268 223,411 223,592 223,773 276,916 383,1023 489,1130 632,1184 813,1184 992,1184 1136,1130 1245,1023 1353,916 1407,772 1407,592 1407,412 1353,268 1245,161 1136,54 992,0 813,0 Z"/>
  </g>
  <g id="bullet-char-template-8226" transform="scale(0.00048828125,-0.00048828125)">
   <path d="M 346,457 C 273,457 209,483 155,535 101,586 74,649 74,723 74,796 101,859 155,911 209,963 273,989 346,989 419,989 480,963 531,910 582,859 608,796 608,723 608,648 583,586 532,535 482,483 420,457 346,457 Z"/>
  </g>
  <g id="bullet-char-template-8211" transform="scale(0.00048828125,-0.00048828125)">
   <path d="M -4,459 L 1135,459 1135,606 -4,606 -4,459 Z"/>
  </g>
  <g id="bullet-char-template-61548" transform="scale(0.00048828125,-0.00048828125)">
   <path d="M 173,740 C 173,903 231,1043 346,1159 462,1274 601,1332 765,1332 928,1332 1067,1274 1183,1159 1299,1043 1357,903 1357,740 1357,577 1299,437 1183,322 1067,206 928,148 765,148 601,148 462,206 346,322 231,437 173,577 173,740 Z"/>
  </g>
 </defs>
 <g>
  <g id="id2" class="Master_Slide">
   <g id="bg-id2" class="Background"/>
   <g id="bo-id2" class="BackgroundObjects"/>
  </g>
 </g>
 <g class="SlideGroup">
  <g>
   <g id="container-id1">
    <g id="id1" class="Slide" clip-path="url(#presentation_clip_path)">
     <g class="Page">
      <g class="com.sun.star.drawing.PolyPolygonShape">
       <g id="id3">
        <rect class="BoundingBox" stroke="none" fill="none" x="6716" y="5837" width="14403" height="14724"/>
        <path fill="rgb(120,75,4)" stroke="none" d="M 16950,5838 L 15958,6036 15544,6251 14784,7475 14407,7921 13562,8510 12819,9175 12350,9747 11897,10430 11078,10797 10318,11019 9200,11301 8449,11889 8040,12640 7920,13408 7954,15389 7886,16003 7767,16148 7604,16532 7553,17018 7442,17377 7348,17565 7289,17676 7229,17761 7220,18034 7263,18563 7314,18666 7280,18845 6973,19169 6777,19340 6717,19485 6734,19605 6819,19630 6973,19681 7135,19673 7340,19673 7511,19622 7869,19477 8023,19331 8236,19280 8697,19246 9064,19340 9192,19340 9294,19238 9260,19110 8970,18905 8885,18708 8979,18589 9064,18597 9158,18307 9354,17804 9832,17104 10370,16412 10592,15858 10737,15141 10856,15124 11232,15499 11710,15755 12256,15960 12521,16336 12717,16814 12615,17462 12555,17727 12580,17872 12666,18265 12717,18546 13895,18666 13844,18947 13827,19366 13818,19758 13835,19954 13835,20151 13690,20262 14040,20398 14322,20501 14552,20560 14740,20330 14933,20406 15247,20389 15495,20379 15678,20196 15828,19959 16119,18412 16411,16451 16526,15854 16526,14186 17334,13562 17870,12876 18143,12781 18057,13164 17954,13639 17911,14039 17949,14384 17884,14703 18219,15621 18240,15799 18418,16085 18575,16442 18672,16884 18786,17198 18845,17451 18813,17840 18672,18218 18483,18380 18289,18472 18197,18531 18170,18645 18424,18667 18769,18553 18937,18618 18991,18759 18964,18910 19045,19131 19174,19309 19639,19331 19952,19196 20367,19045 20573,18931 20627,18586 20659,17878 20821,17382 20897,17019 21042,16425 21113,16118 21118,15707 21021,15221 20988,15016 20902,14590 20897,14287 20951,13899 20870,13435 20794,13057 20670,12554 20573,11965 20524,10578 20459,10108 20297,9449 20114,9060 19898,8780 19520,8418 19050,8191 18893,7965 18958,7608 18829,7344 18721,7144 17991,6463 17635,6155 17241,5956 16950,5838 Z"/>
       </g>
      </g>
      <g class="com.sun.star.drawing.ClosedBezierShape">
       <g id="id4">
        <rect class="BoundingBox" stroke="none" fill="none" x="6635" y="5722" width="14585" height="14904"/>
        <path fill="rgb(0,0,0)" stroke="none" d="M 14374,20610 C 14330,20604 14255,20569 14208,20533 14160,20497 14065,20448 13996,20425 13927,20403 13853,20369 13831,20350 13809,20331 13758,20308 13717,20297 13627,20275 13594,20209 13655,20175 13679,20161 13699,20138 13699,20123 13699,20108 13720,20069 13745,20036 13785,19986 13791,19931 13784,19675 13779,19509 13773,19224 13770,19042 L 13765,18711 13606,18698 C 13519,18690 13431,18674 13411,18661 13392,18648 13237,18628 13068,18617 12898,18605 12728,18583 12689,18569 12627,18545 12621,18532 12634,18440 12643,18367 12635,18329 12605,18303 12581,18284 12562,18230 12562,18184 12562,18138 12549,18087 12534,18071 12513,18050 12513,18037 12534,18025 12571,18001 12571,17858 12533,17846 12515,17840 12498,17732 12491,17572 12477,17298 12529,17016 12626,16833 12665,16758 12664,16751 12615,16714 12586,16692 12541,16610 12513,16533 12486,16454 12427,16358 12381,16316 12296,16239 12276,16175 12325,16144 12364,16120 12249,16036 12144,16013 12088,16001 12046,15971 12027,15931 12003,15878 11979,15867 11884,15867 11821,15867 11722,15848 11663,15824 11577,15790 11549,15788 11516,15815 11470,15853 11472,15854 11414,15741 11390,15694 11361,15655 11349,15655 11337,15655 11302,15634 11272,15609 11242,15583 11191,15545 11159,15523 11027,15434 10948,15357 10948,15316 10947,15291 10917,15250 10881,15224 10823,15182 10814,15181 10800,15217 10791,15240 10801,15303 10821,15358 10870,15490 10855,15602 10788,15602 10751,15602 10737,15621 10737,15667 10737,15702 10749,15739 10763,15748 10829,15789 10746,16283 10669,16308 10655,16313 10624,16281 10599,16237 10535,16125 10490,16135 10505,16257 10513,16330 10500,16383 10454,16456 10420,16510 10382,16555 10369,16555 10356,16555 10338,16587 10328,16626 10318,16666 10270,16742 10221,16796 10172,16850 10112,16925 10088,16963 10063,17000 10027,17031 10008,17031 9952,17031 9758,17234 9758,17294 9758,17324 9734,17369 9705,17394 9676,17419 9652,17460 9652,17485 9652,17509 9643,17533 9632,17538 9598,17553 9414,17789 9414,17818 9414,17833 9396,17860 9374,17878 9352,17896 9334,17944 9334,17984 9334,18025 9317,18071 9295,18089 9273,18107 9255,18148 9255,18180 9255,18212 9238,18261 9216,18289 9166,18356 9166,18418 9215,18460 9238,18478 9255,18536 9255,18592 9255,18670 9240,18702 9186,18737 9120,18780 9115,18779 9054,18722 9005,18676 8982,18669 8959,18692 8936,18716 8939,18735 8973,18772 8997,18799 9017,18839 9017,18860 9017,18906 9191,19068 9239,19068 9257,19068 9299,19105 9332,19150 L 9393,19232 9317,19311 C 9246,19386 9233,19390 9083,19377 8996,19370 8835,19350 8726,19333 8456,19290 8292,19311 8103,19412 8016,19459 7934,19507 7920,19521 7907,19534 7873,19545 7847,19545 7820,19545 7791,19562 7783,19584 7775,19606 7741,19624 7708,19624 7675,19624 7633,19642 7615,19664 7597,19685 7567,19703 7548,19703 7530,19703 7481,19721 7440,19742 7382,19772 7309,19778 7126,19765 6995,19757 6876,19739 6862,19726 6848,19714 6818,19703 6794,19703 6743,19703 6636,19587 6636,19531 6636,19456 6701,19280 6729,19280 6744,19280 6835,19209 6931,19122 7049,19015 7123,18921 7162,18832 7193,18760 7230,18694 7244,18685 7285,18660 7276,18572 7226,18495 7197,18450 7180,18371 7179,18272 7179,18186 7164,18104 7145,18085 7101,18041 7105,17903 7153,17840 7174,17811 7191,17764 7192,17734 7192,17704 7211,17656 7232,17628 7253,17600 7271,17560 7271,17540 7271,17520 7302,17463 7339,17414 7396,17340 7405,17306 7391,17224 7375,17128 7423,16975 7482,16939 7494,16931 7513,16875 7523,16814 7533,16752 7552,16684 7564,16662 7576,16639 7593,16553 7602,16469 7611,16385 7630,16317 7643,16317 7657,16317 7668,16282 7668,16241 7668,16199 7686,16150 7707,16132 7729,16113 7747,16077 7747,16052 7747,16026 7763,15999 7784,15991 7822,15976 7857,15706 7853,15452 7852,15377 7863,15308 7877,15299 7913,15278 7910,14833 7875,14790 7858,14770 7855,14720 7866,14670 7876,14623 7890,14498 7897,14392 7908,14236 7902,14192 7866,14156 7827,14117 7824,14074 7840,13819 7850,13657 7868,13514 7880,13499 7892,13484 7902,13354 7903,13211 7905,13025 7917,12931 7945,12888 7969,12851 7985,12766 7985,12673 7985,12589 8000,12495 8020,12467 8039,12438 8083,12344 8117,12256 8150,12169 8211,12062 8252,12018 8660,11580 8852,11396 8954,11341 9020,11306 9123,11251 9184,11220 9244,11188 9330,11161 9375,11160 9419,11159 9471,11144 9488,11127 9546,11069 9767,11022 10089,11000 10432,10976 10659,10936 10763,10880 10800,10861 10881,10826 10944,10803 11007,10779 11145,10698 11249,10622 11431,10489 11496,10453 11729,10347 11845,10295 12245,9900 12245,9839 12245,9817 12261,9781 12281,9758 12342,9688 12562,9357 12562,9335 12562,9280 13145,8743 13391,8570 13522,8478 13593,8411 13593,8378 13593,8347 13612,8328 13641,8328 13667,8328 13712,8310 13740,8289 13768,8267 13811,8249 13834,8249 13857,8249 13926,8212 13986,8169 14046,8125 14105,8089 14116,8089 14127,8089 14162,8063 14194,8030 14347,7870 14387,7819 14387,7784 14387,7763 14408,7723 14433,7695 14459,7667 14501,7612 14528,7574 14555,7535 14606,7493 14641,7480 14676,7467 14704,7435 14704,7411 14704,7386 14735,7328 14771,7280 14808,7232 14837,7182 14837,7168 14837,7155 14856,7127 14881,7107 14905,7087 14951,7011 14984,6939 15040,6815 15262,6555 15313,6555 15336,6555 15375,6464 15377,6402 15378,6383 15395,6358 15414,6346 15434,6334 15464,6296 15481,6261 15500,6223 15544,6192 15591,6184 15651,6173 15668,6157 15661,6119 15656,6091 15633,6054 15611,6038 15565,6004 15586,5946 15643,5946 15663,5946 15684,5961 15690,5979 15699,6006 15714,6005 15765,5978 15808,5956 15910,5947 16067,5952 16288,5959 16306,5964 16313,6017 16320,6063 16311,6072 16270,6061 16241,6054 16187,6067 16150,6092 16105,6121 16043,6133 15969,6127 15863,6119 15855,6123 15855,6184 15855,6240 15843,6251 15776,6251 15732,6251 15661,6278 15619,6311 15547,6367 15545,6373 15590,6406 15641,6443 15626,6502 15567,6502 15548,6502 15477,6573 15408,6661 15340,6748 15272,6819 15258,6819 15245,6819 15234,6838 15234,6862 15234,6885 15210,6934 15181,6971 15152,7008 15128,7054 15128,7072 15128,7118 15041,7269 15014,7269 14972,7269 14837,7386 14837,7422 14837,7443 14812,7494 14781,7537 14738,7598 14733,7623 14756,7652 14792,7695 14745,7790 14677,7812 14655,7819 14574,7885 14496,7959 14419,8032 14330,8104 14299,8118 14191,8167 14119,8215 14046,8285 14007,8323 13966,8354 13956,8354 13922,8354 13668,8520 13585,8596 13539,8638 13492,8671 13480,8671 13467,8671 13442,8686 13423,8705 13404,8723 13360,8755 13325,8777 13291,8799 13228,8857 13184,8906 13141,8955 13076,9021 13042,9052 12756,9308 12500,9627 12452,9788 12435,9843 12412,9889 12401,9889 12390,9889 12374,9909 12365,9935 12356,9960 12283,10050 12204,10136 12124,10221 12060,10306 12060,10324 12060,10342 12028,10390 11991,10431 11953,10471 11911,10535 11897,10573 L 11870,10643 11808,10564 C 11748,10490 11742,10489 11695,10531 11668,10556 11621,10576 11591,10576 11561,10576 11522,10594 11504,10616 11486,10638 11460,10656 11446,10656 11364,10656 10975,11028 10975,11105 10975,11140 10838,11317 10812,11317 10778,11317 10757,11154 10787,11124 10803,11108 10816,11080 10816,11061 10816,11026 10695,11035 10591,11079 10562,11091 10503,11109 10459,11119 10391,11134 10387,11140 10426,11162 10496,11201 10481,11258 10396,11277 10353,11286 10298,11317 10272,11345 10209,11416 10097,11410 10025,11333 L 9965,11269 10020,11214 C 10058,11175 10109,11159 10186,11159 10246,11159 10289,11151 10280,11143 10271,11134 10165,11127 10044,11127 9857,11127 9804,11137 9694,11196 9623,11233 9545,11264 9521,11264 9497,11264 9454,11282 9426,11303 9397,11325 9355,11342 9332,11343 9309,11343 9237,11372 9173,11409 9109,11445 9033,11486 9004,11499 8938,11529 8710,11724 8616,11832 8401,12076 8277,12233 8276,12260 8276,12276 8260,12303 8240,12320 8220,12336 8196,12409 8186,12481 8177,12553 8157,12619 8143,12627 8129,12636 8117,12714 8117,12800 8117,12886 8099,13003 8076,13061 8029,13178 8019,13622 8034,14909 8040,15452 8034,15668 8011,15695 7994,15716 7988,15745 7998,15760 8019,15795 8091,15796 8091,15762 8091,15736 8273,15602 8309,15602 8320,15602 8329,15616 8329,15632 8329,15677 8074,15920 8027,15920 8004,15920 7985,15937 7985,15958 7985,15979 7964,16002 7938,16011 7913,16019 7869,16067 7842,16117 7801,16193 7798,16217 7826,16250 7853,16283 7847,16316 7790,16436 7718,16588 7703,16673 7745,16699 7758,16707 7727,16793 7676,16889 7614,17005 7592,17072 7610,17090 7643,17123 7694,17094 7694,17043 7694,17022 7712,17005 7734,17005 7784,17005 7785,17068 7736,17159 7715,17198 7692,17250 7684,17276 7659,17357 7615,17326 7615,17227 7615,17163 7604,17136 7582,17143 7532,17160 7527,17257 7574,17304 7626,17356 7627,17491 7575,17534 7553,17552 7535,17583 7535,17603 7535,17623 7517,17640 7496,17640 7474,17640 7456,17663 7456,17691 7456,17764 7406,17786 7366,17731 7341,17697 7326,17693 7312,17716 7301,17734 7307,17765 7324,17786 7345,17811 7349,17850 7334,17897 7298,18021 7302,18433 7340,18433 7358,18433 7380,18397 7390,18352 7402,18296 7421,18274 7452,18280 7524,18294 7520,18414 7444,18485 7395,18531 7377,18575 7377,18648 7377,18703 7367,18754 7355,18761 7342,18769 7338,18810 7344,18853 7354,18919 7346,18933 7293,18940 7247,18947 7233,18964 7239,19007 7244,19045 7229,19070 7193,19081 7137,19099 7117,19148 7165,19148 7242,19148 7117,19304 7038,19306 7020,19306 6998,19324 6989,19346 6981,19368 6964,19386 6951,19386 6939,19386 6882,19433 6824,19492 6727,19590 6724,19597 6781,19597 6816,19597 6870,19566 6905,19524 6970,19447 7263,19290 7290,19317 7312,19338 7101,19536 7034,19557 6974,19577 6959,19677 7016,19677 7036,19677 7104,19629 7168,19571 7231,19513 7299,19465 7317,19465 7335,19465 7350,19450 7350,19432 7351,19382 7528,19271 7577,19290 7639,19314 7608,19371 7527,19381 7455,19389 7429,19451 7489,19473 7508,19479 7512,19494 7499,19508 7485,19522 7470,19517 7463,19498 7457,19480 7435,19465 7415,19465 7396,19465 7370,19480 7358,19498 7346,19516 7313,19545 7284,19561 7255,19577 7227,19609 7223,19633 7211,19691 7356,19694 7403,19637 7421,19615 7463,19597 7496,19597 7528,19597 7570,19580 7588,19558 7606,19536 7643,19518 7670,19518 7697,19518 7761,19478 7811,19429 7895,19348 7899,19337 7860,19298 7820,19259 7821,19254 7865,19237 7896,19225 7921,19234 7938,19264 7957,19299 7983,19306 8047,19292 8093,19282 8146,19261 8165,19246 8185,19230 8369,19214 8588,19208 8801,19203 8980,19193 8987,19187 8993,19181 8985,19159 8968,19140 8947,19113 8947,19096 8970,19073 8993,19049 8987,19029 8943,18988 8911,18958 8885,18903 8885,18866 L 8885,18799 8791,18854 C 8739,18885 8681,18910 8662,18910 8643,18910 8573,18951 8506,19002 8382,19097 8319,19116 8288,19066 8268,19034 8375,18910 8422,18910 8439,18910 8487,18874 8530,18831 8572,18788 8632,18753 8664,18752 8695,18752 8772,18704 8834,18646 8895,18589 8971,18538 9001,18534 9047,18527 9059,18502 9071,18394 9085,18259 9153,18080 9202,18050 9217,18041 9229,17995 9229,17946 9229,17898 9246,17843 9268,17825 9308,17792 9324,17693 9290,17693 9230,17693 9094,17763 9083,17800 9062,17866 8972,17938 8937,17917 8917,17905 8939,17868 9001,17809 9054,17759 9096,17703 9096,17683 9096,17630 9189,17557 9235,17575 9259,17584 9291,17570 9312,17542 9332,17515 9377,17474 9414,17450 9450,17426 9528,17364 9586,17312 9644,17259 9701,17216 9711,17216 9722,17216 9731,17204 9731,17190 9731,17147 9621,17159 9567,17208 9528,17243 9512,17245 9486,17219 9460,17193 9463,17181 9500,17160 9525,17146 9546,17123 9546,17109 9546,17070 9477,17080 9440,17124 9400,17172 9317,17176 9301,17130 9293,17105 9280,17106 9245,17134 9185,17184 9124,17133 9172,17075 9197,17045 9195,17034 9165,17023 9144,17014 9112,17025 9094,17047 9072,17074 9023,17084 8940,17079 8819,17071 8775,17025 8873,17010 8901,17005 8988,16982 9066,16959 9198,16919 9210,16919 9233,16960 9264,17015 9308,17018 9308,16965 9308,16943 9290,16925 9268,16925 9221,16925 9216,16883 9259,16857 9276,16846 9305,16859 9324,16884 9355,16927 9364,16924 9442,16844 9518,16766 9534,16760 9602,16786 9666,16810 9679,16807 9692,16765 9712,16704 9789,16678 9889,16700 9954,16714 9967,16708 9974,16659 9980,16622 10013,16591 10068,16571 10147,16544 10287,16379 10287,16313 10287,16297 10323,16239 10367,16183 10412,16127 10464,16018 10484,15941 10524,15789 10546,15288 10516,15239 10505,15222 10505,15177 10514,15139 10526,15094 10515,15038 10483,14980 10438,14896 10438,14888 10480,14841 10536,14780 10538,14729 10485,14729 10464,14729 10446,14742 10446,14756 10446,14771 10434,14782 10419,14782 10381,14782 10387,14709 10426,14695 10452,14686 10452,14672 10427,14633 10383,14565 10302,14398 10233,14234 10201,14158 10159,14082 10139,14065 10118,14049 10102,14009 10102,13977 10102,13945 10069,13881 10029,13835 9890,13676 9864,13633 9864,13566 9863,13521 9838,13482 9784,13446 9741,13417 9705,13383 9705,13370 9705,13357 9684,13330 9659,13311 9620,13281 9618,13271 9650,13251 9687,13227 9837,13312 9837,13358 9837,13370 9855,13380 9877,13380 9937,13380 10155,13690 10155,13777 10155,13818 10172,13857 10194,13866 10216,13874 10234,13898 10234,13918 10234,13939 10252,13970 10274,13988 10296,14007 10313,14047 10313,14079 10313,14137 10464,14306 10515,14306 10563,14306 10665,14434 10649,14474 10641,14496 10651,14520 10672,14528 10693,14536 10710,14559 10710,14580 10710,14601 10729,14625 10752,14634 10774,14642 10785,14663 10774,14680 10762,14700 10748,14696 10732,14667 10718,14643 10690,14623 10669,14623 10648,14623 10631,14606 10631,14584 10631,14562 10618,14544 10604,14544 10589,14544 10578,14562 10578,14584 10578,14606 10589,14623 10604,14623 10618,14623 10631,14640 10631,14661 10631,14699 10831,14861 10881,14862 10896,14863 10936,14886 10970,14915 11042,14975 11026,15035 10949,14994 10883,14959 10869,14960 10869,15002 10869,15044 10979,15153 11020,15153 11036,15153 11062,15190 11078,15236 11112,15333 11310,15522 11378,15523 11410,15523 11425,15502 11425,15459 11425,15387 11487,15311 11546,15311 11604,15311 11716,15391 11716,15433 11716,15472 11585,15549 11519,15549 11496,15549 11478,15562 11478,15576 11478,15591 11506,15602 11540,15602 11575,15602 11618,15620 11636,15642 11654,15664 11689,15682 11714,15682 11738,15682 11782,15699 11810,15721 11838,15742 11897,15760 11941,15760 11984,15761 12054,15779 12096,15801 12137,15823 12186,15841 12204,15841 12247,15841 12430,16026 12430,16070 12430,16089 12442,16105 12456,16105 12470,16105 12475,16121 12468,16140 12461,16159 12502,16225 12561,16286 12619,16348 12691,16451 12721,16516 12750,16581 12787,16634 12801,16634 12834,16634 12835,16785 12802,16805 12789,16813 12770,16889 12761,16972 12752,17055 12731,17150 12715,17183 12693,17228 12694,17259 12722,17311 12751,17364 12752,17389 12726,17429 12686,17493 12685,17672 12724,17711 12755,17742 12735,17798 12693,17798 12679,17798 12668,17781 12668,17759 12668,17737 12649,17719 12628,17719 12606,17719 12589,17737 12589,17760 12589,17782 12607,17807 12628,17815 12650,17824 12668,17843 12668,17858 12668,17873 12689,17900 12714,17919 12751,17946 12763,18002 12770,18182 12779,18396 12784,18412 12845,18435 12880,18449 12974,18460 13052,18460 13130,18460 13223,18471 13257,18484 13293,18498 13405,18517 13506,18527 13659,18542 13697,18538 13734,18501 13798,18436 13789,18336 13712,18270 13676,18238 13646,18198 13646,18181 13646,18164 13622,18129 13593,18103 13564,18076 13540,18029 13540,17997 13540,17965 13520,17898 13494,17849 13462,17785 13448,17694 13448,17534 13448,17410 13434,17285 13418,17256 13352,17138 13320,17007 13303,16793 13293,16659 13267,16532 13240,16479 13208,16419 13196,16353 13204,16280 13214,16192 13204,16158 13153,16103 13098,16043 13093,16024 13118,15958 13150,15875 13138,15801 13079,15725 13043,15677 13038,15677 12917,15736 12815,15785 12784,15790 12742,15764 12704,15740 12670,15740 12607,15762 12543,15784 12495,15782 12406,15755 12290,15721 12227,15655 12309,15655 12332,15655 12351,15637 12351,15615 12351,15586 12368,15579 12415,15591 12461,15603 12498,15591 12541,15551 12580,15514 12622,15499 12660,15509 12692,15517 12725,15511 12734,15497 12762,15451 12831,15467 12846,15523 12853,15552 12865,15576 12873,15576 12898,15576 13105,15456 13124,15430 13153,15390 13148,15052 13118,15034 13103,15025 13091,14989 13091,14954 13091,14920 13103,14884 13118,14875 13132,14866 13144,14804 13144,14738 13144,14631 13202,14477 13256,14436 13268,14428 13284,14360 13293,14284 13302,14209 13326,14134 13345,14118 13365,14101 13381,14053 13381,14011 13381,13969 13398,13928 13418,13920 13475,13898 13470,13581 13407,13255 13377,13099 13341,12950 13327,12925 13313,12900 13302,12838 13302,12788 13302,12737 13291,12689 13277,12681 13263,12672 13258,12647 13267,12626 13277,12599 13256,12577 13202,12558 13153,12541 13117,12508 13110,12473 13099,12417 13099,12417 13095,12477 13092,12524 13078,12536 13032,12529 12945,12517 12936,12388 13016,12313 13094,12240 13201,12185 13221,12207 13230,12216 13222,12229 13204,12236 13186,12242 13171,12272 13171,12302 13171,12353 13176,12352 13237,12285 13305,12211 13320,12164 13276,12164 13261,12164 13249,12142 13249,12115 13249,12032 13217,12028 13141,12101 13069,12170 13067,12171 12974,12127 12864,12075 12852,12007 12938,11927 13001,11868 13053,11858 13078,11899 13087,11914 13123,11919 13158,11910 13210,11897 13224,11906 13239,11963 13267,12078 13302,12040 13302,11893 13302,11728 13374,11332 13421,11238 13439,11201 13462,11127 13472,11072 13493,10955 13531,10945 13569,11046 13589,11098 13588,11157 13567,11251 13550,11324 13525,11491 13511,11621 13490,11821 13493,11875 13528,11953 13559,12022 13563,12065 13544,12115 13530,12152 13510,12280 13499,12399 13483,12584 13487,12622 13526,12665 13557,12700 13567,12739 13556,12790 13547,12831 13552,12907 13566,12958 13611,13112 13605,13836 13558,13940 13536,13988 13509,14058 13499,14094 13489,14131 13469,14168 13455,14177 13441,14185 13424,14250 13417,14320 13409,14389 13387,14463 13366,14484 13345,14504 13329,14543 13329,14569 13329,14595 13311,14632 13289,14650 13244,14687 13236,14850 13276,14875 13290,14884 13302,14921 13302,14956 13302,14992 13290,15020 13276,15020 13235,15020 13245,15126 13289,15143 13340,15163 13340,15308 13288,15376 13238,15444 13238,15592 13289,15612 13337,15630 13340,15690 13295,15765 13269,15810 13269,15823 13295,15833 13335,15847 13340,15936 13302,15960 13288,15969 13276,16000 13276,16030 13276,16076 13282,16080 13316,16052 13371,16006 13400,16042 13361,16106 13322,16168 13318,16307 13355,16330 13370,16339 13381,16316 13381,16275 13381,16236 13408,16161 13441,16108 13473,16056 13497,16009 13494,16006 13470,15981 13494,15920 13527,15920 13579,15920 13581,16072 13530,16129 13480,16185 13469,16463 13499,16872 13521,17164 13527,17191 13550,17104 13564,17049 13590,17005 13608,17005 13654,17005 13675,17110 13641,17173 13620,17212 13620,17230 13641,17237 13660,17243 13665,17303 13654,17417 13641,17563 13645,17594 13686,17623 13724,17651 13730,17682 13719,17781 13709,17874 13714,17904 13741,17904 13761,17904 13797,17934 13821,17971 13845,18007 13884,18034 13907,18030 13943,18024 13949,18046 13942,18160 13937,18236 13946,18303 13962,18313 13977,18323 13990,18398 13991,18481 13991,18606 13997,18623 14021,18580 14056,18520 14232,18354 14261,18354 14272,18354 14281,18378 14281,18407 14281,18436 14270,18460 14255,18460 14241,18460 14228,18476 14228,18496 14228,18516 14210,18547 14188,18566 14167,18584 14149,18619 14149,18645 14149,18671 14132,18706 14111,18723 14088,18741 14073,18799 14074,18863 14075,18934 14061,18983 14033,19003 14009,19020 13990,19052 13990,19073 13990,19094 13973,19134 13951,19162 13904,19224 13898,19442 13942,19486 13965,19509 13965,19533 13942,19585 13903,19668 13900,19819 13937,19796 13952,19787 13964,19756 13964,19728 13964,19643 14064,19662 14074,19750 14081,19807 14098,19824 14155,19831 14214,19837 14228,19853 14228,19907 14228,19946 14257,20002 14297,20039 14354,20092 14363,20118 14350,20188 14340,20234 14307,20292 14275,20316 14226,20353 14223,20366 14252,20402 14272,20425 14327,20444 14375,20444 14423,20444 14467,20459 14474,20477 14494,20533 14582,20462 14600,20375 14609,20333 14632,20272 14652,20240 14703,20160 14668,20136 14601,20204 14570,20234 14533,20259 14518,20259 14476,20259 14456,20180 14489,20146 14506,20129 14519,20096 14519,20072 14519,20005 14700,19783 14755,19783 14833,19783 14855,19835 14872,20063 14887,20275 14887,20277 14810,20340 14768,20376 14733,20423 14732,20447 14731,20470 14702,20521 14666,20559 14601,20629 14559,20637 14374,20610 Z M 14129,20239 C 14194,20181 14187,20162 14096,20144 14028,20130 14016,20116 14015,20041 14013,19971 14009,19964 13991,20008 13980,20037 13975,20068 13980,20078 13986,20088 13955,20122 13911,20153 13828,20212 13808,20271 13864,20295 13918,20318 14079,20284 14129,20239 Z M 14784,20100 C 14784,20086 14773,20074 14759,20074 14745,20074 14727,20086 14718,20100 14709,20115 14720,20127 14742,20127 14765,20127 14784,20115 14784,20100 Z M 6958,19262 C 6939,19254 6916,19255 6908,19264 6899,19273 6914,19279 6942,19278 6973,19277 6979,19270 6958,19262 Z M 9236,19229 C 9255,19156 9108,19102 9074,19169 9038,19238 9067,19280 9148,19280 9200,19280 9227,19264 9236,19229 Z M 13963,18963 C 13963,18949 13952,18936 13937,18936 13922,18936 13911,18949 13911,18963 13911,18978 13922,18989 13937,18989 13952,18989 13963,18978 13963,18963 Z M 9373,17637 C 9364,17624 9346,17619 9332,17628 9318,17636 9314,17654 9323,17668 9331,17682 9349,17686 9363,17678 9377,17669 9381,17651 9373,17637 Z M 7419,17567 C 7392,17540 7370,17581 7392,17617 7409,17644 7415,17644 7424,17617 7430,17598 7428,17576 7419,17567 Z M 9387,17031 C 9387,17016 9375,17005 9361,17005 9346,17005 9334,17016 9334,17031 9334,17046 9346,17057 9361,17057 9375,17057 9387,17046 9387,17031 Z M 9890,16791 C 9890,16778 9878,16766 9864,16766 9849,16766 9837,16785 9837,16808 9837,16830 9849,16842 9864,16833 9878,16824 9890,16805 9890,16791 Z M 13224,14953 C 13224,14946 13211,14941 13197,14941 13182,14941 13171,14953 13171,14969 13171,14984 13182,14990 13197,14981 13211,14972 13224,14959 13224,14953 Z M 10514,14419 C 10506,14410 10499,14426 10501,14454 10502,14484 10508,14491 10517,14470 10524,14451 10523,14428 10514,14419 Z M 14842,20459 C 14816,20402 14820,20391 14871,20375 14903,20364 14983,20354 15048,20353 15163,20351 15168,20348 15176,20265 15183,20183 15149,20150 15114,20206 15093,20241 14977,20240 14955,20205 14932,20168 15050,20048 15109,20048 15134,20047 15162,20029 15171,20007 15179,19986 15209,19968 15236,19968 15264,19968 15286,19986 15286,20007 15286,20029 15308,20047 15334,20047 15432,20047 15490,20190 15405,20223 15357,20241 15353,20303 15399,20319 15463,20342 15577,20261 15577,20192 15577,20156 15566,20127 15551,20127 15537,20127 15524,20097 15524,20060 15524,20019 15539,19994 15564,19994 15586,19994 15604,20018 15604,20047 15604,20114 15648,20116 15669,20050 15678,20022 15703,19992 15726,19984 15748,19975 15758,19956 15749,19941 15714,19885 15734,19387 15774,19326 15812,19267 15886,18927 15912,18692 15920,18624 15943,18554 15963,18537 15984,18520 16001,18481 16002,18450 16002,18419 16020,18364 16040,18327 16066,18282 16078,18176 16079,17993 16080,17817 16094,17693 16120,17631 16149,17561 16152,17518 16133,17467 16099,17378 16099,17243 16133,17243 16147,17243 16159,17195 16159,17137 16159,17079 16176,16987 16197,16932 16238,16824 16270,16237 16235,16237 16223,16237 16200,16291 16183,16356 16129,16571 16081,16482 16080,16166 16080,16062 16094,15943 16111,15902 16137,15839 16153,15538 16159,14967 16161,14809 16147,14718 16113,14658 16095,14626 16080,14571 16080,14534 16080,14498 16068,14460 16054,14451 16020,14431 16018,14226 16051,14226 16115,14226 16159,14264 16159,14317 16159,14349 16177,14398 16198,14426 16220,14455 16238,14509 16238,14545 16239,14582 16257,14638 16280,14670 16312,14716 16314,14740 16291,14784 16268,14827 16271,14863 16304,14946 16337,15028 16340,15072 16320,15136 16305,15181 16293,15254 16293,15298 16293,15342 16280,15513 16264,15678 16248,15843 16242,16007 16251,16043 16279,16154 16318,16082 16318,15920 16318,15835 16325,15747 16334,15723 16358,15661 16424,15673 16425,15741 16430,15958 16453,16191 16480,16312 16509,16435 16507,16462 16467,16529 16432,16588 16417,16707 16400,17041 16382,17405 16369,17491 16325,17565 16282,17635 16271,17703 16268,17909 16266,18058 16248,18211 16225,18276 16204,18337 16186,18426 16186,18473 16186,18520 16168,18574 16146,18592 16124,18610 16106,18644 16106,18668 16106,18692 16088,18762 16066,18825 16044,18888 16033,18951 16042,18965 16073,19015 15997,19555 15953,19605 15925,19637 15909,19709 15907,19817 15904,19957 15895,19985 15846,20007 15814,20022 15789,20057 15789,20090 15789,20121 15771,20161 15749,20179 15727,20198 15710,20226 15710,20242 15710,20271 15629,20363 15540,20437 15491,20478 15386,20480 15348,20442 15327,20421 15288,20429 15211,20468 15150,20499 15052,20523 14987,20523 14890,20523 14867,20513 14842,20459 Z M 15434,19630 C 15424,19620 15373,19616 15321,19620 15229,19628 15227,19626 15245,19553 15256,19512 15281,19460 15302,19437 15322,19414 15339,19375 15339,19351 15339,19302 15431,19289 15459,19334 15481,19369 15568,19258 15591,19167 15601,19129 15625,19092 15646,19084 15667,19076 15683,19034 15683,18990 15683,18936 15696,18909 15723,18909 15751,18909 15763,18937 15763,19002 15763,19053 15751,19095 15736,19095 15722,19095 15710,19120 15710,19151 15710,19182 15687,19258 15659,19317 15631,19377 15594,19465 15576,19512 15543,19600 15467,19664 15434,19630 Z M 19199,19379 C 19177,19357 19121,19320 19075,19296 19014,19264 18990,19234 18990,19185 18990,19148 18960,19075 18924,19021 18858,18924 18837,18830 18881,18830 18928,18830 18931,18727 18886,18686 18834,18639 18772,18634 18705,18670 18466,18799 18269,18816 18175,18716 18140,18679 18117,18621 18117,18570 18117,18490 18130,18479 18317,18389 18523,18289 18673,18144 18673,18043 18673,18014 18696,17896 18725,17782 18788,17531 18792,17405 18739,17278 18717,17226 18699,17155 18699,17120 18699,17086 18675,17034 18646,17005 18613,16971 18593,16916 18593,16854 18593,16719 18544,16588 18439,16449 L 18349,16330 18362,15957 C 18371,15659 18383,15568 18422,15502 18457,15443 18463,15411 18442,15386 18427,15367 18406,15313 18396,15267 18387,15221 18363,15177 18344,15170 18322,15162 18303,15078 18290,14936 18279,14802 18256,14699 18232,14672 18201,14638 18196,14594 18211,14480 18221,14399 18238,14332 18249,14332 18286,14332 18382,14666 18382,14793 18382,14960 18452,15196 18515,15240 18624,15317 18657,15554 18565,15604 18516,15630 18511,15650 18523,15783 18544,16008 18570,16141 18601,16179 18629,16214 18648,16300 18708,16674 18735,16844 18751,16886 18788,16886 18854,16886 18884,16948 18884,17088 18884,17172 18897,17215 18924,17226 18976,17246 18979,17602 18928,17725 18859,17889 18825,17997 18812,18089 18787,18262 18523,18517 18328,18556 18285,18565 18249,18584 18249,18599 18249,18636 18509,18598 18577,18551 18607,18530 18659,18513 18692,18513 18726,18513 18776,18498 18804,18480 18849,18453 18867,18459 18936,18525 L 19017,18602 19017,18518 C 19017,18454 19005,18433 18969,18433 18943,18433 18907,18419 18890,18402 18853,18365 18847,18094 18882,18040 18914,17989 18964,18027 18964,18101 18964,18135 18982,18177 19003,18195 19025,18213 19043,18252 19043,18280 19043,18309 19060,18364 19080,18403 19100,18441 19129,18505 19145,18545 19161,18586 19218,18639 19280,18671 19342,18703 19387,18745 19387,18771 19388,18796 19395,18844 19404,18878 19417,18926 19408,18942 19362,18954 19330,18963 19293,18999 19279,19034 19247,19118 19205,19102 19137,18981 19107,18928 19071,18887 19056,18890 19018,18899 19038,18997 19084,19023 19105,19035 19123,19065 19123,19089 19124,19114 19153,19168 19189,19208 19242,19269 19263,19277 19306,19255 19334,19239 19387,19227 19423,19227 19575,19227 19613,19155 19529,19027 19499,18981 19490,18926 19500,18841 19517,18684 19559,18640 19601,18733 19636,18809 19678,18803 19678,18723 19678,18654 19757,18656 19847,18726 19888,18759 19916,18807 19916,18845 19916,18900 19904,18910 19830,18910 19699,18911 19683,18933 19698,19088 19715,19260 19752,19266 19893,19121 19985,19026 19996,19002 19996,18879 19996,18759 20006,18733 20080,18667 20179,18578 20248,18571 20268,18647 20291,18734 20374,18700 20395,18595 20405,18546 20426,18498 20441,18489 20455,18480 20476,18440 20486,18400 20496,18360 20515,18320 20528,18312 20541,18304 20551,18161 20551,17994 20551,17681 20518,17610 20485,17851 20475,17924 20456,17983 20443,17983 20430,17983 20419,17966 20419,17944 20419,17860 20341,17907 20314,18007 20283,18122 20227,18182 20170,18160 20144,18150 20128,18165 20123,18203 20113,18276 20027,18296 20006,18230 19998,18204 19985,18164 19978,18142 19968,18110 19958,18112 19927,18155 19893,18201 19884,18202 19863,18169 19849,18147 19837,18120 19837,18109 19836,18063 19757,18094 19757,18141 19757,18169 19747,18198 19734,18206 19707,18223 19572,18105 19572,18064 19572,18015 19528,18034 19498,18096 L 19469,18155 19452,18099 C 19443,18068 19407,18030 19373,18014 19304,17983 19263,17844 19294,17746 19308,17703 19320,17696 19347,17719 19375,17742 19391,17732 19418,17675 19471,17564 19505,17585 19514,17734 19520,17831 19510,17879 19481,17903 19436,17941 19425,18036 19466,18036 19480,18036 19500,18007 19509,17970 19519,17934 19536,17904 19547,17904 19559,17904 19576,17868 19586,17825 19599,17765 19618,17745 19662,17745 19722,17745 19836,17620 19837,17555 19837,17536 19848,17504 19861,17484 19908,17410 19996,17680 19996,17896 19996,18127 20047,18154 20083,17942 20095,17870 20122,17793 20143,17770 20164,17747 20181,17710 20181,17689 20181,17647 20357,17467 20416,17450 20450,17440 20514,17247 20582,16952 20597,16886 20631,16815 20658,16793 20700,16759 20710,16699 20724,16383 20733,16179 20757,15959 20776,15893 20818,15754 20811,15383 20766,15329 20749,15308 20736,15240 20737,15176 20738,15112 20736,15042 20733,15020 20730,14998 20730,14929 20732,14866 20736,14773 20745,14753 20783,14761 20819,14768 20829,14797 20829,14889 20829,14954 20841,15013 20855,15020 20901,15043 20901,14885 20856,14767 20793,14601 20790,14241 20852,14112 20897,14016 20897,14001 20857,13834 20833,13737 20809,13612 20802,13557 20795,13501 20779,13435 20766,13411 20754,13387 20736,13309 20727,13240 20718,13170 20693,13087 20671,13056 20649,13024 20631,12967 20631,12930 20631,12892 20617,12849 20601,12833 20584,12816 20568,12689 20563,12543 20558,12377 20539,12245 20511,12179 20474,12090 20467,11972 20470,11379 20471,10930 20463,10682 20445,10682 20431,10682 20419,10720 20419,10768 20419,10815 20407,10895 20393,10945 20376,11006 20376,11070 20393,11135 20412,11203 20411,11274 20392,11360 20372,11447 20372,11524 20391,11611 20412,11709 20409,11762 20379,11848 20357,11909 20340,11998 20340,12045 20340,12092 20322,12174 20300,12226 20278,12278 20260,12384 20260,12461 20259,12604 20227,12695 20189,12657 20152,12620 20164,12177 20202,12130 20226,12102 20241,11963 20251,11696 20258,11480 20275,11269 20289,11227 20303,11183 20303,11138 20290,11121 20277,11105 20258,10884 20247,10629 20237,10375 20216,10151 20201,10133 20186,10114 20181,10050 20189,9987 20204,9877 20169,9652 20133,9625 20085,9588 19855,9200 19872,9184 19894,9161 20181,9473 20181,9520 20181,9548 20193,9571 20207,9571 20245,9571 20240,9463 20199,9414 20180,9391 20141,9319 20113,9254 20085,9188 20044,9115 20022,9090 19951,9010 19927,8976 19909,8929 19899,8904 19879,8883 19864,8883 19849,8883 19837,8863 19837,8839 19837,8740 19384,8392 19194,8344 L 19123,8326 19122,8506 C 19122,8688 19051,8938 18993,8957 18951,8971 18957,9047 19007,9118 19030,9152 19056,9256 19063,9350 19075,9497 19069,9532 19020,9598 18989,9640 18964,9686 18964,9699 18964,9712 18946,9738 18924,9756 18902,9774 18884,9814 18884,9844 18884,9878 18810,9972 18692,10086 18439,10332 18302,10502 18302,10573 18302,10611 18271,10650 18210,10686 18159,10716 18117,10751 18117,10764 18117,10813 17960,10787 17907,10730 17877,10699 17850,10678 17846,10684 17842,10690 17827,10717 17813,10744 17766,10829 17734,10802 17711,10657 17696,10562 17698,10495 17719,10449 L 17750,10383 17865,10513 C 17963,10623 17988,10638 18029,10614 18056,10598 18093,10552 18113,10513 18132,10473 18168,10433 18192,10425 18255,10401 18355,10290 18355,10242 18355,10220 18427,10134 18514,10051 18707,9869 18715,9831 18557,9852 18484,9862 18435,9857 18423,9839 18411,9818 18449,9809 18546,9808 18661,9807 18702,9793 18775,9731 18848,9668 18861,9642 18848,9586 18833,9529 18814,9517 18732,9514 18540,9505 18262,9524 18238,9547 18224,9560 18173,9571 18123,9571 18074,9571 17995,9591 17949,9615 17903,9639 17833,9675 17792,9696 17719,9733 17338,9753 17306,9722 17298,9713 17297,9687 17306,9665 17317,9635 17359,9624 17454,9624 17577,9624 17674,9595 17861,9502 17902,9482 17965,9465 18001,9465 18037,9465 18094,9447 18127,9425 18210,9371 18812,9364 18876,9416 18913,9447 18916,9441 18899,9359 18888,9308 18863,9232 18842,9190 18822,9148 18805,9079 18805,9038 18805,8975 18794,8962 18737,8962 18700,8962 18651,8980 18629,9002 18594,9038 18581,9033 18512,8965 18370,8823 18424,8632 18601,8646 18708,8655 18709,8645 18604,8555 18529,8489 18509,8456 18530,8435 18604,8358 18843,8595 18862,8765 18874,8870 18918,8859 18951,8743 18965,8692 18986,8640 18997,8630 19008,8619 19017,8557 19017,8492 19017,8395 19003,8362 18934,8298 18889,8256 18859,8205 18866,8185 18874,8165 18868,8136 18852,8121 18832,8101 18806,8120 18762,8185 18681,8304 18683,8318 18780,8337 18873,8356 18861,8407 18764,8407 18724,8407 18699,8392 18699,8367 18699,8339 18670,8327 18593,8327 18506,8327 18469,8309 18379,8222 18262,8108 18197,8091 18142,8158 18113,8192 18114,8203 18145,8223 18166,8236 18208,8247 18239,8248 18284,8248 18355,8338 18355,8395 18355,8419 18146,8406 18130,8380 18121,8366 18080,8354 18038,8354 17996,8354 17943,8335 17920,8312 17877,8268 17800,8278 17800,8327 17800,8342 17782,8354 17760,8354 17738,8354 17720,8365 17720,8380 17720,8394 17682,8407 17634,8407 17587,8407 17495,8410 17429,8414 17321,8419 17309,8414 17301,8356 17296,8318 17309,8283 17334,8269 17384,8241 17390,8195 17343,8195 17325,8195 17276,8214 17233,8236 17191,8258 17153,8271 17147,8266 17142,8261 17157,8218 17181,8171 17226,8081 17215,8038 17159,8082 17110,8120 16990,8145 16942,8126 16875,8100 16890,8010 16961,8010 16995,8010 17057,7976 17100,7934 17219,7819 17348,7781 17484,7822 17563,7846 17603,7847 17623,7827 17669,7781 17739,7794 17754,7851 17771,7913 17847,7922 17870,7864 17878,7842 17870,7806 17852,7785 17825,7752 17830,7745 17884,7745 17973,7745 18011,7793 17993,7882 17973,7985 17991,7977 18079,7845 18194,7672 18226,7653 18280,7725 18317,7773 18333,7779 18359,7752 18399,7713 18583,7708 18607,7745 18616,7760 18652,7772 18687,7772 18729,7772 18764,7796 18790,7845 L 18829,7917 18830,7823 C 18831,7772 18818,7716 18802,7700 18781,7679 18788,7663 18828,7641 18890,7608 18898,7481 18838,7481 18800,7481 18752,7375 18752,7292 18752,7252 18767,7241 18812,7248 18859,7254 18873,7275 18879,7349 18883,7399 18917,7504 18955,7581 19013,7699 19019,7732 18994,7787 18977,7824 18964,7905 18964,7967 18964,8073 18971,8085 19063,8129 19118,8155 19194,8193 19232,8212 19271,8232 19327,8248 19356,8248 19385,8248 19413,8258 19418,8270 19423,8282 19476,8321 19537,8357 19654,8426 19943,8686 19943,8723 19943,8735 19961,8759 19982,8777 20004,8795 20022,8839 20022,8873 20022,8908 20032,8936 20044,8936 20072,8936 20232,9155 20293,9277 20319,9327 20340,9406 20340,9453 20340,9499 20356,9552 20376,9569 20397,9586 20421,9642 20431,9694 20441,9746 20460,9809 20472,9832 20518,9916 20572,10154 20548,10168 20517,10187 20518,10331 20549,10350 20563,10359 20580,10440 20588,10530 20610,10783 20638,11296 20632,11370 20602,11818 20605,12159 20640,12255 20661,12314 20698,12452 20723,12561 20748,12670 20785,12807 20806,12866 20826,12925 20842,13018 20842,13075 20842,13131 20861,13199 20883,13224 20912,13254 20925,13327 20927,13463 20928,13570 20946,13690 20965,13729 21016,13830 21010,14153 20956,14306 20915,14423 20914,14441 20953,14535 20976,14591 21009,14714 21025,14809 21084,15151 21105,15238 21137,15276 21157,15300 21173,15414 21177,15558 21181,15692 21195,15877 21208,15970 21225,16095 21222,16171 21196,16259 21176,16324 21160,16402 21160,16431 21160,16461 21143,16503 21123,16526 21080,16575 21001,16938 21001,17088 21001,17200 20906,17524 20866,17548 20853,17557 20842,17605 20842,17655 20842,17712 20827,17753 20803,17762 20781,17771 20763,17801 20763,17829 20763,17858 20744,17908 20721,17944 20688,17993 20682,18044 20696,18161 20719,18370 20717,18664 20692,18782 20669,18883 20462,19095 20386,19095 20365,19095 20298,19130 20238,19174 20175,19220 20095,19253 20050,19253 20003,19253 19943,19280 19900,19320 19838,19377 19805,19386 19667,19383 19579,19381 19446,19388 19372,19399 19269,19414 19229,19409 19199,19379 Z M 20219,18953 C 20300,18816 20304,18777 20235,18777 20166,18777 20101,18876 20101,18982 20101,19099 20139,19090 20219,18953 Z M 19202,18770 C 19146,18675 19082,18630 19058,18668 19051,18680 19090,18737 19144,18796 19256,18918 19282,18906 19202,18770 Z M 20524,18771 C 20525,18761 20507,18751 20485,18751 20460,18751 20445,18776 20445,18822 20445,18890 20447,18891 20484,18842 20506,18814 20524,18782 20524,18771 Z M 19757,17944 C 19757,17893 19746,17851 19731,17851 19716,17851 19705,17893 19705,17944 19705,17995 19716,18036 19731,18036 19746,18036 19757,17995 19757,17944 Z M 20741,17393 C 20766,17289 20788,17179 20789,17150 20790,17121 20814,17050 20842,16991 20876,16921 20894,16828 20894,16713 20895,16600 20910,16520 20937,16481 20965,16440 20976,16373 20972,16266 20967,16149 20977,16099 21010,16066 21064,16011 21066,15875 21014,15682 20993,15602 20975,15459 20974,15364 20974,15192 20945,15094 20911,15149 20901,15164 20900,15349 20909,15560 20922,15877 20918,15956 20884,16023 20852,16083 20842,16186 20842,16442 20842,16711 20833,16794 20800,16842 20735,16934 20601,17538 20636,17580 20677,17629 20690,17606 20741,17393 Z M 20396,10346 C 20389,10036 20340,9989 20340,10292 20340,10512 20357,10621 20387,10591 20395,10583 20399,10473 20396,10346 Z M 18657,8895 C 18683,8825 18675,8804 18623,8804 18577,8804 18541,8852 18541,8912 18541,8954 18640,8939 18657,8895 Z M 17759,8224 C 17767,8210 17761,8191 17746,8182 17708,8159 17588,8190 17588,8223 17588,8256 17739,8257 17759,8224 Z M 18051,8222 C 18060,8208 18042,8196 18011,8196 17981,8196 17963,8208 17972,8222 17981,8237 17999,8249 18011,8249 18024,8249 18042,8237 18051,8222 Z M 18809,8048 C 18866,8013 18826,7966 18743,7969 18663,7972 18567,8031 18567,8078 18567,8097 18770,8072 18809,8048 Z M 17310,8011 C 17319,7996 17308,7984 17285,7984 17263,7984 17244,7996 17244,8011 17244,8025 17255,8037 17269,8037 17283,8037 17301,8025 17310,8011 Z M 8029,19210 C 8020,19200 8012,19159 8012,19119 8012,19079 8001,19039 7988,19031 7963,19015 7793,19094 7778,19128 7765,19158 7682,19152 7649,19119 7632,19102 7562,19087 7492,19085 7392,19083 7362,19072 7355,19034 7350,19008 7360,18970 7378,18949 7414,18905 7536,18896 7536,18937 7536,18952 7556,18972 7582,18981 7607,18990 7648,19014 7671,19035 7709,19067 7726,19061 7804,18990 7877,18922 7911,18909 7999,18916 8104,18923 8104,18924 8112,19045 8120,19161 8073,19254 8029,19210 Z M 8594,19122 C 8594,19108 8605,19095 8620,19095 8634,19095 8647,19108 8647,19122 8647,19137 8634,19148 8620,19148 8605,19148 8594,19137 8594,19122 Z M 8736,18449 C 8714,18391 8745,18249 8790,18198 8810,18175 8831,18133 8836,18105 8841,18077 8860,18050 8878,18044 8925,18028 8920,18126 8864,18313 8816,18472 8766,18526 8736,18449 Z M 7456,18103 C 7456,18052 7470,18011 7486,18011 7503,18011 7510,17983 7503,17944 7493,17893 7501,17878 7540,17878 7603,17878 7633,17952 7592,18008 7575,18031 7548,18083 7533,18123 7493,18224 7456,18214 7456,18103 Z M 12752,17888 C 12757,17861 12773,17842 12788,17845 12826,17855 12820,17912 12778,17925 12755,17933 12746,17920 12752,17888 Z M 13785,17057 C 13752,17001 13726,16938 13726,16917 13726,16896 13710,16866 13690,16850 13630,16800 13580,16540 13616,16462 13633,16425 13646,16361 13646,16319 13646,16278 13664,16230 13685,16213 13706,16195 13726,16138 13731,16086 13735,16034 13754,15986 13772,15980 13815,15966 13819,16454 13777,16533 13744,16593 13777,16716 13844,16783 13887,16826 13903,17123 13864,17147 13853,17154 13817,17114 13785,17057 Z M 7789,16929 C 7778,16911 7776,16889 7784,16880 7808,16856 7834,16891 7821,16929 7812,16956 7806,16956 7789,16929 Z M 7933,16195 C 7933,16153 8046,16001 8067,16014 8108,16039 8094,16137 8045,16175 7996,16212 7933,16223 7933,16195 Z M 16520,16103 C 16500,16041 16454,15493 16457,15352 16463,14992 16411,14311 16367,14174 16331,14067 16320,13660 16350,13573 16361,13541 16376,13338 16384,13124 16392,12896 16415,12679 16438,12603 16460,12532 16477,12389 16478,12286 16478,12183 16495,12027 16516,11940 16567,11731 16566,11611 16514,11486 16478,11402 16474,11333 16489,11093 16499,10933 16508,10784 16508,10762 16508,10672 16459,10428 16429,10374 16412,10342 16398,10293 16398,10265 16398,10208 16317,10024 16238,9902 16210,9859 16179,9805 16169,9783 16145,9731 15866,9365 15786,9280 15718,9209 15443,8998 15344,8942 15311,8923 15206,8901 15111,8892 15016,8883 14895,8854 14842,8827 14789,8800 14713,8778 14672,8778 14566,8778 14387,8718 14387,8682 14387,8588 14678,8598 14903,8699 15030,8756 15121,8778 15226,8778 15401,8778 15490,8820 15696,9001 15798,9090 15856,9109 15791,9032 15755,8988 15684,8582 15684,8420 15684,8324 15667,8297 15512,8145 15343,7979 15340,7973 15340,7836 15340,7759 15351,7667 15364,7631 15391,7560 15535,7402 15573,7402 15597,7402 15684,7315 15684,7290 15684,7282 15652,7268 15614,7258 15493,7228 15587,7181 15756,7187 15902,7193 16027,7243 16027,7296 16027,7309 16057,7350 16093,7386 16147,7440 16176,7449 16252,7437 16328,7424 16345,7430 16345,7467 16345,7524 16204,7667 16149,7667 16098,7667 16095,7696 16140,7744 16166,7772 16166,7782 16140,7791 16120,7798 16107,7851 16107,7920 16107,8014 16098,8037 16061,8036 16001,8035 15922,7975 15922,7931 15922,7913 15943,7881 15968,7862 16011,7829 16010,7825 15955,7810 15871,7786 15881,7749 16003,7627 16082,7548 16098,7519 16067,7512 15999,7498 15949,7528 15922,7600 15894,7673 15821,7687 15737,7635 15694,7608 15676,7612 15622,7662 15567,7714 15555,7717 15526,7681 15474,7618 15445,7658 15445,7795 L 15445,7920 15633,8045 C 15737,8113 15844,8169 15872,8169 15924,8169 15941,8234 15895,8262 15858,8285 15862,8443 15901,8482 15927,8508 15927,8526 15901,8567 15854,8641 15861,8823 15914,8913 15969,9005 16001,9011 16001,8930 16002,8847 16030,8751 16054,8751 16065,8751 16081,8802 16091,8864 16111,8995 16176,9210 16228,9314 16254,9367 16257,9407 16238,9455 16217,9511 16225,9541 16285,9626 16325,9683 16369,9726 16382,9722 16396,9718 16409,9652 16411,9576 16418,9399 16447,9368 16539,9441 16602,9490 16610,9514 16610,9661 L 16610,9826 16715,9873 C 16774,9898 16821,9928 16821,9939 16821,9950 16858,10000 16903,10050 16948,10100 16995,10166 17007,10198 17020,10231 17063,10262 17108,10272 17151,10281 17207,10312 17233,10340 17258,10369 17301,10392 17327,10392 17353,10392 17388,10416 17403,10445 17419,10474 17454,10498 17481,10498 17539,10498 17656,10714 17632,10776 17608,10838 17526,10822 17430,10736 17381,10692 17327,10656 17310,10656 17293,10656 17258,10633 17231,10603 17203,10573 17149,10550 17102,10550 17006,10549 16937,10497 16846,10359 16782,10260 16722,10218 16692,10248 16683,10257 16675,10647 16674,11115 16672,11983 16636,12597 16568,12905 16547,13000 16530,13109 16530,13149 L 16530,13220 16615,13175 C 16662,13150 16715,13118 16732,13104 16750,13089 16803,13047 16850,13011 16898,12975 16958,12923 16983,12895 17029,12846 17112,12852 17112,12904 17112,12918 17025,13018 16919,13126 16791,13255 16697,13328 16641,13340 16595,13350 16552,13366 16547,13376 16516,13427 16505,13794 16532,13875 16554,13942 16554,13974 16530,14002 16478,14065 16529,14106 16584,14047 16611,14018 16720,13937 16826,13866 16933,13796 17026,13732 17033,13725 17040,13717 17100,13665 17165,13607 17231,13550 17326,13447 17377,13380 17428,13313 17538,13189 17621,13102 17705,13016 17773,12932 17774,12917 17774,12872 17880,12792 18051,12709 18228,12624 18514,12345 18514,12257 18515,12228 18533,12170 18554,12128 18576,12087 18594,12021 18594,11983 18594,11944 18612,11848 18634,11768 18655,11688 18673,11557 18673,11477 18673,11397 18687,11260 18703,11172 18718,11085 18740,10960 18750,10894 18770,10768 18888,10558 18953,10533 19000,10515 19070,10569 19070,10624 19070,10646 19028,10727 18978,10804 18904,10914 18885,10969 18885,11071 18884,11141 18867,11264 18845,11344 18824,11424 18806,11573 18805,11675 18804,11785 18788,11887 18766,11926 18745,11963 18728,12034 18727,12085 18726,12136 18699,12227 18666,12287 18634,12347 18575,12456 18535,12529 18496,12602 18449,12667 18431,12673 18381,12690 18427,12773 18487,12773 18541,12773 18634,12910 18601,12942 18592,12951 18606,12974 18631,12993 18657,13012 18701,13091 18728,13169 18792,13348 18799,13353 18861,13274 L 18912,13210 18978,13283 C 19015,13324 19044,13390 19044,13431 19044,13471 19068,13533 19097,13566 19127,13600 19149,13635 19149,13645 19149,13656 19178,13659 19212,13652 19264,13642 19286,13661 19345,13767 19427,13913 19427,13999 19345,14010 19303,14016 19284,14001 19271,13950 19257,13895 19243,13885 19193,13898 19102,13921 18979,13806 18939,13661 18907,13547 18903,13544 18816,13558 18734,13571 18723,13565 18697,13491 18682,13446 18647,13402 18620,13394 18560,13375 18462,13215 18461,13135 18461,13103 18449,13059 18434,13038 18411,13003 18404,13004 18380,13044 18319,13148 18263,13051 18274,12859 18283,12695 18232,12721 18196,12899 18180,12982 18142,13099 18113,13159 18046,13293 18056,13391 18137,13402 18192,13410 18197,13424 18197,13586 18197,13761 18157,13793 18140,13632 18128,13524 18080,13531 18069,13642 18065,13692 18044,13757 18024,13788 18000,13826 17996,13857 18013,13883 18033,13916 18049,13909 18103,13844 18159,13777 18174,13770 18196,13804 18211,13826 18223,13918 18223,14009 18223,14138 18206,14211 18144,14342 18057,14527 18046,14602 18101,14656 18136,14691 18143,14715 18194,14988 18208,15064 18239,15153 18262,15185 18293,15230 18303,15314 18302,15536 18302,15834 18275,15946 18224,15868 18210,15846 18198,15774 18197,15707 18197,15641 18180,15564 18158,15535 18137,15507 18119,15442 18118,15391 18117,15340 18099,15269 18078,15233 18057,15196 18040,15134 18039,15095 18038,15015 17902,14797 17838,14773 17803,14759 17798,14716 17808,14498 17814,14357 17828,14205 17838,14161 17856,14086 17854,14084 17815,14133 17787,14168 17765,14176 17747,14158 17729,14140 17740,14093 17781,14014 17871,13841 17916,13671 17882,13637 17841,13595 17847,13433 17893,13344 17915,13303 17933,13255 17933,13240 17934,13223 17957,13162 17985,13104 18036,12999 18055,12879 18021,12879 18001,12879 17668,13223 17668,13242 17668,13256 17536,13423 17403,13577 17252,13753 17081,13907 16962,13976 16892,14016 16778,14103 16709,14170 16599,14276 16585,14302 16598,14372 16612,14449 16640,15065 16639,15259 16639,15310 16623,15520 16604,15727 16572,16079 16547,16189 16520,16103 Z M 16107,7772 C 16107,7757 16089,7746 16067,7746 16045,7746 16027,7757 16027,7772 16027,7786 16045,7799 16067,7799 16089,7799 16107,7786 16107,7772 Z M 14588,15895 C 14540,15747 14535,15658 14570,15571 14584,15537 14602,15477 14611,15437 14632,15337 14699,15345 14717,15451 14728,15518 14722,15901 14707,16006 14706,16017 14688,16026 14668,16026 14647,16026 14612,15968 14588,15895 Z M 8091,15973 C 8091,15959 8109,15947 8131,15947 8152,15947 8170,15959 8170,15973 8170,15988 8152,16000 8131,16000 8109,16000 8091,15988 8091,15973 Z M 14291,15870 C 14282,15826 14258,15775 14238,15759 14218,15742 14202,15713 14202,15695 14202,15676 14184,15654 14162,15646 14104,15624 14113,15504 14175,15470 14206,15454 14228,15415 14228,15378 14228,15294 14280,15265 14325,15326 14372,15391 14370,15469 14319,15525 14292,15555 14284,15594 14296,15639 14319,15732 14358,15727 14378,15629 14397,15532 14433,15527 14455,15617 14474,15689 14387,15925 14336,15942 14320,15947 14300,15915 14291,15870 Z M 14140,15876 C 14108,15844 14122,15788 14162,15788 14184,15788 14202,15811 14202,15841 14202,15894 14173,15910 14140,15876 Z M 11855,15648 C 11762,15609 11716,15574 11716,15543 11716,15518 11719,15496 11722,15495 11726,15495 11824,15484 11940,15472 12194,15445 12271,15467 12271,15566 12271,15714 12095,15748 11855,15648 Z M 13902,15506 C 13863,15467 13885,15391 13935,15391 13963,15391 13992,15376 14001,15358 14009,15340 14009,15355 14000,15391 13981,15469 13928,15532 13902,15506 Z M 20409,15456 C 20400,15433 20393,15331 20393,15230 20393,15082 20403,15037 20446,14994 20475,14965 20498,14910 20498,14871 20498,14833 20515,14788 20535,14772 20565,14748 20567,14707 20547,14553 20527,14405 20529,14348 20557,14289 20586,14230 20590,14134 20576,13843 20555,13420 20568,13248 20621,13248 20644,13248 20657,13278 20657,13328 20657,13372 20678,13440 20703,13479 20772,13584 20771,14195 20701,14349 20661,14439 20657,14479 20679,14599 20700,14715 20698,14747 20668,14764 20646,14776 20631,14826 20631,14883 20631,14937 20606,15047 20576,15127 20547,15207 20514,15319 20503,15376 20483,15487 20436,15527 20409,15456 Z M 12522,15437 C 12512,15412 12488,15391 12468,15391 12410,15391 12402,15348 12450,15294 12507,15231 12794,15085 12817,15108 12827,15118 12815,15133 12791,15142 12767,15151 12747,15174 12747,15193 12747,15242 12660,15391 12631,15391 12618,15391 12592,15412 12574,15437 12541,15481 12539,15481 12521,15437 L 12522,15437 Z M 12582,15358 C 12569,15321 12527,15325 12514,15365 12509,15379 12525,15391 12549,15391 12573,15391 12588,15376 12582,15358 Z M 13623,15282 C 13510,15170 13505,15159 13512,15046 13515,15009 13494,14949 13466,14914 13390,14816 13374,14742 13420,14704 13443,14685 13461,14636 13461,14594 13461,14552 13472,14518 13486,14518 13501,14518 13505,14483 13496,14439 13485,14380 13492,14356 13524,14344 13547,14335 13567,14299 13567,14264 13567,14225 13582,14200 13606,14200 13656,14200 13657,14229 13608,14295 13576,14339 13576,14352 13607,14387 13629,14411 13648,14504 13654,14612 13659,14719 13683,14833 13710,14885 13738,14939 13751,15004 13742,15047 13733,15093 13748,15156 13781,15218 13884,15411 13789,15449 13623,15282 Z M 11967,15337 C 11938,15325 11883,15315 11845,15314 11769,15311 11674,15225 11701,15181 11711,15166 11766,15153 11824,15153 11882,15153 11966,15134 12010,15112 12118,15056 12203,15071 12214,15148 12229,15255 12069,15378 11967,15337 Z M 12844,15321 C 12810,15286 12828,15245 12893,15215 12968,15180 12968,15179 12933,15270 12908,15338 12878,15354 12844,15321 Z M 11133,15207 C 11133,15192 11145,15179 11160,15179 11174,15179 11186,15185 11186,15191 11186,15197 11174,15210 11160,15219 11145,15228 11133,15223 11133,15207 Z M 14321,15172 C 14310,15146 14308,15117 14317,15108 14344,15081 14366,15119 14353,15171 14342,15217 14341,15217 14321,15172 Z M 11405,15030 C 11328,14947 11330,14915 11412,14915 11448,14915 11478,14904 11478,14889 11478,14875 11465,14862 11451,14862 11436,14862 11425,14852 11425,14839 11425,14826 11476,14815 11537,14815 11599,14814 11695,14806 11749,14796 11871,14773 11874,14796 11762,14893 11684,14960 11681,14970 11723,14996 11748,15011 11769,15035 11769,15049 11769,15098 11683,15073 11632,15008 11583,14946 11455,14910 11491,14968 11500,14983 11531,14994 11559,14994 11630,14994 11624,15064 11551,15084 11473,15104 11474,15105 11405,15030 Z M 10314,14650 C 10314,14636 10325,14624 10340,14624 10354,14624 10367,14636 10367,14650 10367,14665 10354,14677 10340,14677 10325,14677 10314,14665 10314,14650 Z M 8118,14480 C 8118,14443 8129,14412 8144,14412 8158,14412 8171,14435 8171,14464 8171,14492 8159,14522 8144,14531 8129,14541 8118,14518 8118,14480 Z M 14518,14484 C 14453,14449 14383,14387 14362,14344 14322,14265 14287,13857 14321,13857 14351,13857 14441,13970 14482,14062 14503,14109 14536,14148 14555,14148 14574,14148 14616,14176 14649,14211 14696,14261 14706,14299 14700,14400 14695,14470 14679,14531 14663,14536 14648,14541 14583,14518 14518,14484 Z M 14934,14068 C 14955,14068 15011,14039 15058,14003 15112,13962 15164,13943 15198,13953 15245,13965 15256,13952 15271,13872 15284,13803 15303,13777 15340,13777 15387,13777 15445,13848 15445,13904 15445,13961 15244,14174 15191,14174 15146,14174 15131,14195 15118,14279 15100,14389 15043,14437 14883,14475 14816,14491 14810,14487 14810,14411 14810,14288 14890,14068 14934,14068 Z M 8197,14305 C 8197,14258 8208,14231 8224,14240 8238,14249 8250,14286 8250,14321 8250,14357 8238,14386 8224,14386 8209,14386 8197,14349 8197,14305 Z M 14100,14043 C 14051,13956 14042,13905 14049,13747 14053,13642 14069,13553 14084,13547 14100,13542 14140,13601 14173,13678 14219,13784 14231,13850 14222,13957 14207,14148 14173,14172 14100,14043 Z M 19474,13865 C 19403,13851 19391,13739 19452,13657 19489,13606 19490,13606 19507,13658 19549,13785 19556,13783 19574,13639 19584,13556 19610,13461 19632,13427 19654,13394 19680,13328 19691,13281 19727,13114 19819,13224 19785,13394 19755,13547 19684,13835 19674,13844 19656,13864 19529,13876 19474,13865 Z M 8181,13792 C 8160,13738 8178,13665 8215,13652 8249,13641 8272,13714 8255,13784 8241,13840 8201,13845 8181,13792 Z M 16092,13599 C 16083,13559 16059,13488 16038,13443 15982,13317 15987,12870 16045,12812 16085,12772 16086,12741 16060,12514 16043,12374 16040,12247 16052,12232 16064,12217 16081,12151 16090,12085 16135,11766 16153,11686 16195,11641 16243,11587 16255,11410 16213,11384 16179,11364 16178,11247 16210,11227 16252,11201 16241,10869 16195,10781 16168,10729 16158,10661 16167,10587 16175,10513 16166,10455 16142,10419 16102,10362 16128,10345 16179,10395 16195,10411 16221,10416 16237,10407 16256,10395 16248,10355 16212,10286 16183,10229 16160,10159 16160,10132 16160,10104 16142,10066 16120,10048 16098,10030 16080,9999 16080,9979 16080,9928 15973,9730 15945,9730 15932,9730 15922,9709 15922,9683 15922,9658 15886,9597 15842,9549 15754,9453 15743,9413 15802,9413 15824,9413 15842,9431 15842,9453 15842,9474 15860,9492 15882,9492 15904,9492 15922,9509 15922,9529 15922,9549 15963,9610 16014,9666 16065,9722 16107,9783 16107,9803 16107,9822 16125,9845 16146,9853 16168,9861 16187,9888 16187,9912 16187,9936 16205,9978 16227,10007 16248,10035 16265,10085 16265,10118 16265,10150 16276,10183 16288,10191 16308,10203 16355,10743 16352,10934 16345,11374 16326,11614 16295,11633 16268,11650 16265,11703 16280,11861 16298,12056 16296,12069 16238,12112 16190,12149 16179,12179 16185,12261 16205,12539 16189,12785 16148,12815 16115,12839 16107,12902 16107,13138 16107,13304 16118,13437 16133,13447 16167,13468 16168,13672 16134,13672 16119,13672 16100,13639 16092,13599 Z M 13896,13447 C 13876,13340 13903,13117 13936,13117 13976,13117 13986,13187 13971,13351 13954,13540 13921,13582 13896,13447 Z M 8118,13435 C 8118,13407 8129,13376 8144,13367 8159,13358 8170,13303 8170,13244 8170,13186 8187,13107 8208,13068 8229,13029 8252,12977 8260,12952 8268,12926 8287,12905 8303,12905 8355,12905 8365,12993 8320,13071 8296,13113 8276,13187 8276,13234 8276,13286 8256,13338 8223,13367 8194,13394 8170,13431 8170,13451 8170,13470 8159,13486 8144,13486 8129,13486 8118,13463 8118,13435 Z M 10674,13367 C 10652,13345 10588,13328 10529,13328 10405,13328 10334,13305 10355,13272 10375,13240 10650,13242 10671,13275 10680,13289 10703,13301 10723,13301 10743,13301 10793,13314 10833,13329 10892,13351 10899,13362 10868,13382 10810,13419 10719,13412 10674,13367 Z M 10062,13196 C 10071,13182 10090,13170 10103,13170 10117,13170 10128,13181 10128,13196 10128,13210 10110,13223 10087,13223 10064,13223 10053,13211 10062,13196 Z M 20527,13185 C 20526,13157 20532,13142 20541,13151 20550,13159 20551,13182 20543,13201 20535,13222 20528,13216 20527,13185 Z M 10135,13117 C 10086,13040 10092,13035 10212,13054 10291,13067 10316,13064 10303,13042 10292,13025 10270,13011 10252,13011 10235,13011 10205,12986 10186,12956 10155,12906 10136,12903 9981,12920 9826,12936 9811,12934 9811,12889 9812,12801 9847,12783 10022,12778 10185,12774 10200,12779 10297,12866 10353,12917 10412,12959 10429,12959 10445,12959 10437,12977 10410,12997 10353,13040 10373,13090 10447,13090 10476,13090 10499,13108 10499,13130 10499,13161 10463,13170 10333,13170 10196,13170 10162,13161 10135,13117 Z M 13821,12952 C 13816,12933 13796,12871 13776,12813 13755,12751 13739,12598 13739,12448 13739,12252 13730,12183 13701,12166 13671,12147 13670,12134 13694,12104 13718,12075 13717,12049 13687,11989 13653,11921 13653,11895 13689,11772 13751,11563 13790,11610 13805,11915 13812,12060 13829,12194 13841,12213 13877,12269 13893,12985 13859,12985 13843,12985 13826,12970 13821,12952 Z M 17165,12747 C 17165,12717 17177,12694 17191,12694 17206,12694 17218,12717 17218,12747 17218,12776 17206,12799 17191,12799 17177,12799 17165,12776 17165,12747 Z M 9930,12455 C 9939,12441 9970,12429 9999,12429 10028,12429 10045,12441 10036,12455 10027,12470 9995,12482 9966,12482 9936,12482 9921,12470 9930,12455 Z M 12576,12323 C 12567,12309 12581,12267 12607,12231 12669,12146 12809,12147 12822,12232 12834,12316 12620,12395 12576,12323 Z M 9811,12260 C 9811,12226 9830,12182 9852,12163 9875,12144 9891,12098 9887,12061 9879,11969 9910,11882 9958,11863 10008,11844 10008,11741 9958,11741 9919,11741 9864,11664 9864,11610 9864,11595 9882,11582 9905,11582 9927,11582 9952,11564 9960,11543 9985,11479 10199,11489 10234,11556 10258,11601 10252,11614 10196,11640 10127,11671 10111,11726 10152,11790 10167,11814 10153,11865 10112,11936 10041,12062 10032,12152 10089,12174 10153,12198 10134,12244 10061,12244 10023,12244 9975,12262 9953,12283 9890,12347 9811,12334 9811,12260 Z M 12271,11965 C 12221,11905 12274,11865 12407,11862 12544,11860 12567,11907 12454,11963 12348,12016 12314,12016 12271,11965 Z M 17581,11781 C 17539,11538 17572,11221 17625,11360 17646,11413 17641,11704 17617,11807 L 17599,11887 17581,11781 Z M 12351,11662 C 12351,11618 12362,11582 12377,11582 12391,11582 12404,11618 12404,11662 12404,11705 12391,11741 12377,11741 12362,11741 12351,11705 12351,11662 Z M 10724,11477 C 10704,11445 10729,11397 10765,11397 10797,11397 10797,11469 10765,11489 10752,11497 10733,11492 10724,11477 Z M 18001,10237 C 17979,10201 18083,10145 18135,10165 18157,10173 18200,10162 18231,10140 18263,10119 18303,10101 18322,10101 18374,10101 18362,10163 18302,10201 18227,10247 18023,10272 18001,10237 Z M 17418,10180 C 17341,10180 17260,10069 17304,10025 17348,9981 17365,9987 17398,10061 17415,10097 17447,10127 17470,10127 17493,10127 17537,10151 17568,10180 L 17625,10233 17568,10233 C 17537,10233 17505,10221 17496,10207 17487,10192 17452,10180 17418,10180 Z M 17086,9932 C 17086,9912 17069,9882 17048,9864 16987,9814 16967,9582 17017,9506 17040,9470 17059,9425 17059,9405 17059,9384 17083,9346 17112,9320 17141,9294 17165,9256 17165,9237 17165,9187 17216,9192 17236,9245 17246,9270 17235,9301 17209,9320 17185,9338 17165,9373 17165,9398 17165,9424 17145,9479 17120,9521 17082,9585 17080,9611 17107,9685 17145,9792 17149,9968 17112,9968 17098,9968 17086,9952 17086,9932 Z M 18210,9915 C 18201,9901 18212,9889 18235,9889 18258,9889 18276,9900 18276,9915 18276,9929 18265,9942 18251,9942 18238,9942 18219,9930 18210,9915 Z M 17339,9522 C 17328,9504 17326,9481 17334,9473 17358,9449 17384,9484 17371,9522 17362,9549 17356,9549 17339,9522 Z M 12927,9398 C 12907,9378 13258,9016 13298,9016 13312,9016 13328,9007 13333,8996 13345,8969 13559,8781 13670,8698 13720,8662 13802,8593 13853,8546 13904,8498 13964,8460 13988,8460 14011,8460 14083,8413 14149,8354 14259,8256 14387,8214 14387,8275 14387,8290 14401,8302 14419,8302 14442,8302 14443,8294 14421,8272 14399,8250 14405,8217 14445,8146 14533,7987 14569,7959 14661,7974 14816,8001 14818,8003 14766,8093 14739,8138 14703,8181 14685,8188 14666,8195 14652,8241 14652,8288 14652,8390 14719,8433 14770,8364 14789,8337 14820,8326 14846,8336 14910,8361 14900,8388 14808,8440 14709,8497 14625,8500 14625,8448 14625,8416 14601,8412 14507,8425 14411,8438 14385,8432 14371,8398 14348,8336 14300,8344 14228,8421 14194,8457 14145,8487 14118,8487 14092,8487 14069,8504 14069,8526 14069,8547 14059,8566 14045,8566 14032,8566 13976,8608 13922,8659 13868,8710 13810,8751 13793,8751 13775,8751 13733,8781 13699,8817 13665,8854 13622,8884 13603,8884 13584,8884 13555,8908 13539,8939 13523,8969 13469,9011 13419,9032 13369,9053 13329,9079 13329,9091 13329,9104 13289,9135 13242,9161 13194,9187 13143,9233 13129,9264 13116,9295 13081,9324 13052,9330 13024,9335 12988,9357 12972,9378 12957,9399 12937,9408 12927,9398 Z M 14599,8143 C 14599,8128 14587,8116 14572,8116 14558,8116 14546,8128 14546,8143 14546,8157 14558,8169 14572,8169 14587,8169 14599,8157 14599,8143 Z M 14667,8018 C 14659,8009 14652,8025 14654,8052 14655,8083 14661,8090 14670,8068 14677,8049 14676,8026 14667,8018 Z M 16265,9308 C 16265,9292 16278,9280 16292,9280 16307,9280 16318,9285 16318,9292 16318,9298 16306,9311 16292,9320 16277,9329 16265,9323 16265,9308 Z M 17271,9056 C 17285,9047 17297,9058 17297,9080 L 17297,9142 C 17297,9152 17285,9165 17271,9170 17256,9175 17244,9155 17244,9125 17244,9096 17256,9065 17271,9056 Z M 17959,9068 C 17959,9053 17977,9034 17998,9025 18054,9004 18176,9038 18157,9070 18135,9104 17959,9103 17959,9068 Z M 17665,8993 C 17588,8930 17586,8808 17660,8643 17702,8548 17740,8509 17832,8464 17982,8392 18011,8393 18091,8479 L 18157,8549 18091,8529 C 17920,8477 17915,8479 17853,8580 17820,8633 17790,8697 17788,8721 17785,8745 17774,8798 17762,8839 17746,8896 17751,8921 17788,8947 17837,8983 17821,9042 17762,9042 17742,9042 17699,9020 17665,8993 Z M 18187,8923 C 18170,8878 18058,8871 17983,8911 17924,8943 17826,8903 17826,8848 17826,8795 17975,8698 18055,8698 18188,8698 18362,8862 18313,8941 18290,8978 18203,8965 18187,8923 Z M 17403,8845 C 17403,8838 17415,8826 17430,8817 17444,8808 17456,8813 17456,8829 17456,8844 17445,8857 17430,8857 17416,8857 17403,8851 17403,8845 Z M 16520,8785 C 16467,8732 16605,8513 16691,8513 16718,8513 16719,8520 16694,8545 16664,8575 16648,8698 16674,8698 16681,8698 16719,8668 16759,8631 16816,8578 16854,8565 16936,8571 17053,8580 17120,8648 17066,8702 17041,8727 17022,8723 16980,8685 16926,8637 16924,8637 16848,8720 16766,8810 16719,8824 16667,8772 16642,8747 16623,8747 16585,8770 16558,8787 16529,8794 16520,8785 Z M 16295,8670 C 16246,8623 16238,8596 16252,8513 16266,8430 16259,8403 16210,8358 16154,8305 16153,8300 16196,8252 16221,8224 16244,8173 16247,8137 16258,8006 16736,7545 16840,7566 16903,7578 16911,7631 16852,7647 16824,7654 16784,7694 16765,7735 16745,7776 16687,7838 16636,7872 16585,7906 16533,7957 16519,7985 16506,8014 16480,8037 16461,8037 16414,8037 16421,8223 16468,8241 16513,8258 16514,8360 16471,8403 16446,8428 16446,8446 16471,8487 16489,8516 16504,8545 16504,8553 16504,8581 16401,8564 16387,8533 16379,8515 16379,8530 16389,8566 16429,8723 16394,8761 16295,8670 Z M 17248,8566 C 17368,8454 17437,8452 17424,8563 17418,8615 17395,8638 17330,8658 17283,8672 17244,8692 17244,8704 17244,8715 17221,8725 17191,8725 17162,8725 17139,8712 17139,8696 17139,8681 17188,8622 17248,8566 Z M 18184,8539 C 18163,8505 18237,8476 18291,8497 18344,8517 18315,8566 18250,8566 18222,8566 18193,8554 18184,8539 Z M 18395,8460 C 18386,8446 18404,8434 18435,8434 18466,8434 18484,8446 18475,8460 18466,8475 18448,8487 18435,8487 18422,8487 18404,8475 18395,8460 Z M 16676,7989 C 16641,7954 16668,7882 16722,7868 16755,7860 16825,7814 16877,7766 17243,7436 17324,7379 17324,7455 17324,7507 17379,7480 17403,7415 17432,7340 17430,7341 17681,7334 17783,7331 17889,7325 17916,7319 18003,7302 17996,7376 17909,7409 17826,7440 17802,7490 17854,7522 17890,7544 18055,7466 18073,7419 18090,7373 18330,7344 18377,7382 18396,7398 18460,7412 18519,7413 18611,7415 18640,7430 18708,7514 18794,7621 18788,7667 18693,7619 18442,7494 18259,7470 18168,7550 18145,7570 18102,7587 18072,7587 18043,7587 18002,7606 17983,7630 17955,7663 17920,7668 17815,7654 17742,7645 17670,7627 17655,7616 17624,7592 17350,7594 17310,7619 17296,7628 17240,7644 17186,7654 17123,7665 17082,7690 17071,7723 17063,7750 17021,7791 16978,7813 16936,7835 16882,7881 16860,7916 16821,7974 16707,8020 16676,7989 Z M 17575,7455 C 17584,7440 17566,7428 17535,7428 17505,7428 17487,7440 17496,7455 17505,7469 17523,7481 17535,7481 17548,7481 17566,7469 17575,7455 Z M 15642,7946 C 15593,7910 15595,7904 15700,7803 15781,7725 15817,7705 15839,7727 15887,7775 15873,7865 15807,7927 15735,7994 15711,7997 15642,7946 Z M 16424,7617 C 16424,7583 16547,7508 16602,7508 16639,7508 16631,7523 16570,7573 16489,7639 16424,7659 16424,7617 Z M 16495,7349 C 16583,7349 16496,7309 16352,7283 16183,7253 16144,7205 16268,7181 16462,7142 16715,7177 16715,7243 16715,7285 16610,7379 16583,7362 16569,7354 16534,7360 16504,7375 16468,7395 16451,7395 16451,7376 16451,7361 16471,7349 16495,7349 Z M 18620,7164 C 18591,7135 18543,7111 18514,7111 18483,7111 18451,7086 18437,7051 18413,6987 18219,6820 18170,6820 18153,6820 18109,6796 18072,6767 18035,6738 17988,6714 17968,6714 17948,6714 17932,6686 17932,6648 17932,6612 17921,6582 17907,6582 17869,6582 17849,6629 17879,6648 17894,6657 17900,6676 17892,6689 17866,6730 17833,6717 17819,6660 17807,6618 17790,6610 17739,6623 17702,6632 17649,6626 17619,6611 17527,6561 17435,6317 17509,6317 17554,6317 17538,6196 17487,6149 17460,6125 17401,6106 17354,6106 17268,6106 17166,6062 17133,6010 17122,5994 17057,5960 16987,5933 16838,5877 16720,5773 16760,5733 16778,5715 16797,5720 16820,5747 16840,5771 16896,5788 16955,5788 17021,5788 17065,5803 17080,5830 17095,5857 17140,5873 17202,5873 17263,5873 17307,5887 17315,5910 17323,5930 17352,5947 17380,5947 17408,5947 17438,5965 17447,5986 17455,6008 17478,6026 17498,6026 17518,6026 17591,6079 17659,6145 17728,6210 17802,6265 17825,6265 17884,6266 17960,6335 18099,6516 18236,6695 18336,6793 18379,6793 18395,6793 18409,6805 18409,6820 18409,6834 18433,6846 18463,6846 18500,6846 18529,6876 18556,6939 18580,6997 18613,7032 18642,7032 18703,7032 18817,7150 18793,7188 18765,7234 18678,7221 18620,7164 Z M 17800,6570 C 17800,6551 17677,6423 17658,6423 17626,6423 17642,6499 17683,6540 17721,6578 17800,6598 17800,6570 Z M 17842,6430 C 17834,6421 17827,6437 17829,6465 17830,6496 17836,6502 17845,6481 17852,6462 17851,6439 17842,6430 Z M 17615,6383 C 17615,6361 17603,6344 17588,6344 17574,6344 17562,6361 17562,6383 17562,6404 17574,6423 17588,6423 17603,6423 17615,6404 17615,6383 Z M 15608,7117 C 15558,7100 15573,7048 15660,6930 15737,6825 15918,6714 16011,6714 16033,6714 16058,6702 16067,6688 16076,6673 16115,6662 16155,6664 L 16226,6667 16153,6696 C 16113,6711 16080,6744 16080,6767 16080,6791 16045,6844 16001,6886 15903,6980 15900,7011 15991,7000 16058,6992 16138,7062 16103,7097 16086,7114 15653,7132 15608,7117 Z M 16519,7087 C 16500,7058 16578,7026 16615,7048 16632,7058 16628,7073 16606,7087 16559,7117 16537,7117 16519,7087 Z M 16590,6935 C 16545,6917 16597,6820 16651,6820 16700,6820 16821,6897 16821,6929 16821,6953 16647,6958 16590,6935 Z M 16917,6754 C 16909,6732 16887,6714 16868,6714 16818,6714 16763,6613 16782,6554 16792,6521 16822,6502 16863,6502 16948,6502 16944,6477 16844,6375 16798,6328 16766,6284 16773,6277 16793,6257 17038,6394 17075,6445 17093,6469 17112,6483 17118,6476 17198,6372 17217,6315 17186,6266 17168,6237 17162,6206 17172,6196 17197,6171 17323,6295 17323,6346 17324,6369 17354,6415 17390,6450 17466,6521 17475,6576 17412,6600 17384,6611 17351,6596 17320,6557 L 17272,6498 17241,6566 C 17223,6604 17192,6635 17171,6635 17150,6635 17088,6670 17033,6714 16952,6778 16930,6786 16917,6754 Z M 15922,6545 C 15922,6505 15977,6476 16056,6476 16084,6476 16107,6466 16107,6454 16107,6441 16148,6409 16199,6382 16285,6335 16295,6335 16335,6375 16404,6444 16362,6502 16243,6502 16183,6502 16126,6519 16107,6542 16065,6593 15922,6595 15922,6545 Z M 16477,5992 C 16420,5963 16332,5794 16360,5765 16364,5760 16420,5779 16482,5809 16545,5838 16642,5868 16699,5877 16834,5896 16847,5914 16768,5975 16692,6033 16572,6040 16477,5992 Z"/>
       </g>
      </g>
     </g>
    </g>
   </g>
  </g>
 </g>
</svg>